# xmcd
#
# Track frame offsets:
#	150
#	16757
#	36271
#	52441
#	72749
#	92978
#	111495
#	126715
#	141909
#	158984
#	173755
#	189305
#	208117
#	222379
#	240228
#	253281
#	268548
#	290190
#
# Disc length: 4085 seconds
#
# Revision: 2
# Processed by: cddbd v1.5.2PL0 Copyright (c) Steve Scherf et al.
# Submitted via: audiograbber 1.83.01
#
DISCID=2d0ff312
DTITLE=Various Artist - Airplay Summer 2007
DYEAR=2007
DGENRE=Pop
TTITLE0=Colin Hay - Beautiful World
TTITLE1=Bob Evans - Nowhere Without You
TTITLE2=Corinne Bailey Rae - Put Your Records On
TTITLE3=Jehro - Sweet
TTITLE4=Missy Higgins - The Special Two
TTITLE5=Jamie Cullum - Mind Trick
TTITLE6=Kasey Chambers - Nothing At All
TTITLE7=Tex Perkins, Don Walker, Charlie Owen - You're 39, You're Beautiful And
TTITLE7=You're Mine
TTITLE8=Mark Sholtez - Complicated Woman
TTITLE9=Jem - They
TTITLE10=Keb' Mo' - Just Like You
TTITLE11=Boz Scaggs - Love T.K.O.
TTITLE12=Gabor Szabo - Breezin'
TTITLE13=The Whitlams - Fondness Makes The Heart Grow Absent
TTITLE14=Bic Runga - Winning Arrow
TTITLE15=Declan O'Rourke - Galileo (Someone Like You)
TTITLE16=Ben Folds - Landed (Strings Version)
TTITLE17=Bird York - In The Deep
EXTD=
EXTT0=
EXTT1=
EXTT2=
EXTT3=
EXTT4=
EXTT5=
EXTT6=
EXTT7=
EXTT8=
EXTT9=
EXTT10=
EXTT11=
EXTT12=
EXTT13=
EXTT14=
EXTT15=
EXTT16=
EXTT17=
PLAYORDER=
